<svg width="110" height="18" viewBox="0 0 110 18" fill="none" xmlns="http://www.w3.org/2000/svg">
<path d="M0.48 17V16.088C0.784 15.912 1.104 15.76 1.44 15.632C1.792 15.504 2.128 15.424 2.448 15.392V1.808C2.128 1.744 1.792 1.656 1.44 1.544C1.088 1.416 0.768 1.272 0.48 1.112V0.199999H4.344C4.952 0.199999 5.528 0.175999 6.072 0.128C6.616 0.0799994 7.24 0.0559993 7.944 0.0559993C8.712 0.0559993 9.456 0.111999 10.176 0.223999C10.896 0.335999 11.536 0.535999 12.096 0.823999C12.656 1.112 13.104 1.52 13.44 2.048C13.776 2.56 13.944 3.224 13.944 4.04C13.944 4.552 13.848 5.032 13.656 5.48C13.48 5.912 13.224 6.296 12.888 6.632C12.568 6.968 12.184 7.248 11.736 7.472C11.304 7.696 10.832 7.856 10.32 7.952V8.048C10.832 8.112 11.344 8.232 11.856 8.408C12.384 8.584 12.856 8.84 13.272 9.176C13.688 9.512 14.024 9.936 14.28 10.448C14.552 10.944 14.688 11.536 14.688 12.224C14.688 13.088 14.496 13.832 14.112 14.456C13.728 15.08 13.208 15.592 12.552 15.992C11.912 16.392 11.176 16.688 10.344 16.88C9.512 17.056 8.648 17.144 7.752 17.144C7.416 17.144 7.048 17.136 6.648 17.12C6.248 17.104 5.848 17.088 5.448 17.072C5.048 17.056 4.656 17.04 4.272 17.024C3.904 17.008 3.592 17 3.336 17H0.48ZM7.728 15.584C8.736 15.584 9.528 15.288 10.104 14.696C10.68 14.088 10.968 13.288 10.968 12.296C10.968 11.688 10.872 11.192 10.68 10.808C10.488 10.408 10.224 10.096 9.888 9.872C9.552 9.632 9.152 9.472 8.688 9.392C8.224 9.296 7.72 9.248 7.176 9.248H5.904V15.416C6.128 15.464 6.36 15.504 6.6 15.536C6.856 15.568 7.232 15.584 7.728 15.584ZM6.672 7.688C6.944 7.688 7.216 7.68 7.488 7.664C7.76 7.632 8.016 7.6 8.256 7.568C8.88 7.312 9.384 6.92 9.768 6.392C10.152 5.848 10.344 5.232 10.344 4.544C10.344 3.536 10.08 2.8 9.552 2.336C9.024 1.856 8.344 1.616 7.512 1.616C7.16 1.616 6.856 1.624 6.6 1.64C6.344 1.656 6.112 1.68 5.904 1.712V7.688H6.672ZM27.2499 14.984C27.1219 15.256 26.9139 15.536 26.6259 15.824C26.3539 16.096 26.0099 16.344 25.5939 16.568C25.1939 16.776 24.7219 16.944 24.1779 17.072C23.6499 17.216 23.0739 17.288 22.4499 17.288C21.4579 17.288 20.5779 17.144 19.8099 16.856C19.0419 16.552 18.4019 16.128 17.8899 15.584C17.3779 15.024 16.9859 14.36 16.7139 13.592C16.4579 12.824 16.3299 11.96 16.3299 11C16.3299 8.952 16.8659 7.392 17.9379 6.32C19.0099 5.248 20.4979 4.712 22.4019 4.712C23.2179 4.712 23.9779 4.824 24.6819 5.048C25.4019 5.272 25.9939 5.64 26.4579 6.152C26.9379 6.664 27.2659 7.336 27.4419 8.168C27.6339 9 27.6259 10.016 27.4179 11.216H20.0499C20.0659 12.48 20.3859 13.488 21.0099 14.24C21.6499 14.992 22.5859 15.368 23.8179 15.368C24.3459 15.368 24.8899 15.288 25.4499 15.128C26.0259 14.968 26.4739 14.76 26.7939 14.504L27.2499 14.984ZM22.3059 6.08C21.9859 6.08 21.6979 6.136 21.4419 6.248C21.2019 6.36 20.9859 6.568 20.7939 6.872C20.6179 7.16 20.4739 7.56 20.3619 8.072C20.2499 8.568 20.1699 9.2 20.1219 9.968H23.9859C24.0979 8.72 24.0259 7.76 23.7699 7.088C23.5139 6.416 23.0259 6.08 22.3059 6.08ZM28.6686 5.576C29.2766 5.192 29.9166 4.92 30.5886 4.76V2.816C30.7166 2.72 31.0286 2.584 31.5246 2.408C32.0366 2.216 32.6046 2.064 33.2286 1.952H34.0446V5H37.2126V6.512H34.0446V12.728C34.0446 13.72 34.1646 14.408 34.4046 14.792C34.6606 15.176 35.0766 15.368 35.6526 15.368C35.9406 15.368 36.2606 15.352 36.6126 15.32C36.9806 15.272 37.3166 15.192 37.6206 15.08L37.7886 15.872C37.6446 16.016 37.4286 16.168 37.1406 16.328C36.8686 16.488 36.5486 16.64 36.1806 16.784C35.8286 16.928 35.4366 17.048 35.0046 17.144C34.5886 17.24 34.1486 17.288 33.6846 17.288C32.6446 17.288 31.8686 17.016 31.3566 16.472C30.8446 15.928 30.5886 15.048 30.5886 13.832V6.512H28.6686V5.576ZM49.3425 13.52C49.3425 13.872 49.3425 14.176 49.3425 14.432C49.3585 14.688 49.3825 14.96 49.4145 15.248L51.0705 15.488V16.328C50.8785 16.424 50.6145 16.52 50.2785 16.616C49.9585 16.712 49.6145 16.808 49.2465 16.904C48.8945 16.984 48.5425 17.048 48.1905 17.096C47.8385 17.16 47.5265 17.208 47.2545 17.24H46.4385C46.2785 16.872 46.1825 16.504 46.1505 16.136C46.1185 15.768 46.0945 15.32 46.0785 14.792H45.9585C45.8785 15.112 45.7425 15.424 45.5505 15.728C45.3585 16.016 45.1105 16.28 44.8065 16.52C44.5185 16.744 44.1745 16.928 43.7745 17.072C43.3745 17.216 42.9265 17.288 42.4305 17.288C41.9025 17.288 41.4145 17.208 40.9665 17.048C40.5185 16.888 40.1265 16.664 39.7905 16.376C39.4545 16.088 39.1905 15.744 38.9985 15.344C38.8065 14.928 38.7105 14.464 38.7105 13.952C38.7105 13.232 38.8465 12.64 39.1185 12.176C39.3905 11.712 39.8145 11.336 40.3905 11.048C40.9825 10.744 41.7345 10.52 42.6465 10.376C43.5745 10.232 44.6945 10.128 46.0065 10.064C46.1345 8.688 46.0785 7.68 45.8385 7.04C45.5985 6.4 45.0785 6.08 44.2785 6.08C43.7825 6.08 43.3265 6.16 42.9105 6.32L41.7825 9.2H40.7265C40.5985 9.008 40.4705 8.792 40.3425 8.552C40.2305 8.296 40.1185 8.032 40.0065 7.76C39.9105 7.472 39.8225 7.184 39.7425 6.896C39.6785 6.608 39.6305 6.328 39.5985 6.056C40.2065 5.64 40.9905 5.312 41.9505 5.072C42.9105 4.832 43.9265 4.712 44.9985 4.712C45.9105 4.712 46.6545 4.816 47.2305 5.024C47.8065 5.216 48.2545 5.488 48.5745 5.84C48.9105 6.176 49.1425 6.576 49.2705 7.04C49.3985 7.504 49.4625 8 49.4625 8.528C49.4625 9.488 49.4385 10.36 49.3905 11.144C49.3585 11.912 49.3425 12.704 49.3425 13.52ZM43.9425 15.368C44.2785 15.368 44.5665 15.304 44.8065 15.176C45.0465 15.048 45.2465 14.896 45.4065 14.72C45.5825 14.544 45.7105 14.352 45.7905 14.144C45.8865 13.936 45.9585 13.752 46.0065 13.592V11.192C45.2545 11.208 44.6385 11.256 44.1585 11.336C43.6785 11.416 43.3025 11.552 43.0305 11.744C42.7585 11.92 42.5665 12.152 42.4545 12.44C42.3585 12.712 42.3105 13.048 42.3105 13.448C42.3105 14.056 42.4545 14.528 42.7425 14.864C43.0305 15.2 43.4305 15.368 43.9425 15.368ZM59.1739 17H51.9019V16.088C52.1739 15.944 52.4859 15.808 52.8379 15.68C53.2059 15.552 53.5499 15.456 53.8699 15.392V1.808C53.4859 1.744 53.1179 1.648 52.7659 1.52C52.4139 1.392 52.1259 1.256 51.9019 1.112V0.199999H59.1739V1.112C58.9339 1.272 58.6619 1.416 58.3579 1.544C58.0699 1.672 57.7739 1.76 57.4699 1.808V7.616H63.8299V1.808C63.4779 1.744 63.1579 1.648 62.8699 1.52C62.5979 1.392 62.3499 1.256 62.1259 1.112V0.199999H69.3979V1.112C69.1259 1.288 68.8139 1.432 68.4619 1.544C68.1099 1.656 67.7659 1.744 67.4299 1.808V15.392C67.7979 15.456 68.1499 15.552 68.4859 15.68C68.8379 15.808 69.1419 15.944 69.3979 16.088V17H62.1259V16.088C62.3659 15.944 62.6299 15.808 62.9179 15.68C63.2059 15.552 63.5099 15.456 63.8299 15.392V9.176H57.4699V15.392C57.7899 15.456 58.0859 15.544 58.3579 15.656C58.6299 15.768 58.9019 15.912 59.1739 16.088V17ZM71.5712 12.248C71.5712 11.24 71.5952 10.304 71.6432 9.44C71.6912 8.576 71.7152 7.664 71.7152 6.704L70.1312 6.512V5.576C70.3872 5.48 70.6992 5.384 71.0672 5.288C71.4512 5.192 71.8432 5.112 72.2432 5.048C72.6432 4.968 73.0272 4.904 73.3952 4.856C73.7792 4.792 74.0992 4.744 74.3552 4.712H75.1712C75.1712 5.912 75.1472 7.096 75.0992 8.264C75.0512 9.416 75.0272 10.552 75.0272 11.672C75.0272 12.984 75.1552 13.928 75.4112 14.504C75.6832 15.08 76.1792 15.368 76.8992 15.368C77.3952 15.368 77.8512 15.184 78.2672 14.816C78.6992 14.432 79.0512 13.824 79.3232 12.992V6.704L77.7632 6.512V5.576C78.0032 5.48 78.2992 5.384 78.6512 5.288C79.0192 5.192 79.3952 5.112 79.7792 5.048C80.1792 4.968 80.5712 4.904 80.9552 4.856C81.3392 4.792 81.6752 4.744 81.9632 4.712H82.7792V15.296L84.3632 15.488V16.328C84.1392 16.424 83.8592 16.52 83.5232 16.616C83.1872 16.712 82.8352 16.808 82.4672 16.904C82.0992 16.984 81.7312 17.048 81.3632 17.096C81.0112 17.16 80.6912 17.208 80.4032 17.24H79.5872L79.4192 14.384H79.3232C79.2432 14.72 79.0992 15.064 78.8912 15.416C78.6832 15.752 78.4112 16.064 78.0752 16.352C77.7552 16.624 77.3712 16.848 76.9232 17.024C76.4752 17.2 75.9792 17.288 75.4352 17.288C74.8272 17.288 74.2832 17.208 73.8032 17.048C73.3392 16.904 72.9392 16.64 72.6032 16.256C72.2672 15.872 72.0112 15.36 71.8352 14.72C71.6592 14.064 71.5712 13.24 71.5712 12.248ZM99.9649 17H93.6049V16.064C93.8129 15.952 94.0129 15.856 94.2049 15.776C94.4129 15.68 94.6529 15.584 94.9249 15.488V9.848C94.9249 8.84 94.7809 8.056 94.4929 7.496C94.2049 6.92 93.6929 6.632 92.9569 6.632C92.3489 6.632 91.8209 6.832 91.3729 7.232C90.9409 7.616 90.6129 8.144 90.3889 8.816V15.488C90.6449 15.552 90.8689 15.632 91.0609 15.728C91.2689 15.808 91.4849 15.92 91.7089 16.064V17H85.3489V16.064C85.7489 15.856 86.2769 15.664 86.9329 15.488V6.704L85.3489 6.512V5.576C85.5569 5.48 85.8289 5.392 86.1649 5.312C86.5009 5.216 86.8609 5.128 87.2449 5.048C87.6449 4.968 88.0449 4.904 88.4449 4.856C88.8609 4.792 89.2369 4.744 89.5729 4.712H90.3889V7.184H90.4129C90.7489 6.512 91.2529 5.936 91.9249 5.456C92.5969 4.96 93.4129 4.712 94.3729 4.712C94.9969 4.712 95.5569 4.792 96.0529 4.952C96.5489 5.096 96.9649 5.36 97.3009 5.744C97.6529 6.128 97.9169 6.648 98.0929 7.304C98.2849 7.944 98.3809 8.76 98.3809 9.752V15.488C99.0209 15.6 99.5489 15.792 99.9649 16.064V17ZM100.434 5.576C101.042 5.192 101.682 4.92 102.354 4.76V2.816C102.482 2.72 102.794 2.584 103.29 2.408C103.802 2.216 104.37 2.064 104.994 1.952H105.81V5H108.978V6.512H105.81V12.728C105.81 13.72 105.93 14.408 106.17 14.792C106.426 15.176 106.842 15.368 107.418 15.368C107.706 15.368 108.026 15.352 108.378 15.32C108.746 15.272 109.082 15.192 109.386 15.08L109.554 15.872C109.41 16.016 109.194 16.168 108.906 16.328C108.634 16.488 108.314 16.64 107.946 16.784C107.594 16.928 107.202 17.048 106.77 17.144C106.354 17.24 105.914 17.288 105.45 17.288C104.41 17.288 103.634 17.016 103.122 16.472C102.61 15.928 102.354 15.048 102.354 13.832V6.512H100.434V5.576Z" fill="#1E1E1E"/>
</svg>
